<?xml version="1.0"?>
<svg xmlns="http://www.w3.org/2000/svg" xmlns:xlink="http://www.w3.org/1999/xlink" viewBox="0 0 512 512" width="512" height="512"><defs><linearGradient id="linear-gradient" x1="43.803" y1="519.117" x2="459.117" y2="103.803" gradientUnits="userSpaceOnUse"><stop offset="0" stop-color="#41dfd0"/><stop offset="1" stop-color="#ee83ef"/></linearGradient></defs><g id="gradient"><path d="M400,265.931A33.7,33.7,0,0,1,424,256a8,8,0,0,1,0,16,17.791,17.791,0,0,0-16,9.889l-.845,1.69a8,8,0,0,1-14.31,0L392,281.89A17.79,17.79,0,0,0,376,272a8,8,0,0,1,0-16A33.7,33.7,0,0,1,400,265.931Zm32-32.041.845,1.689a8,8,0,0,0,14.31,0l.845-1.69A17.791,17.791,0,0,1,464,224a8,8,0,0,0,0-16,33.7,33.7,0,0,0-24,9.931A33.7,33.7,0,0,0,416,208a8,8,0,0,0,0,16A17.79,17.79,0,0,1,432,233.89ZM352,104a8,8,0,0,0,8,8h24a8,8,0,0,0,0-16H360A8,8,0,0,0,352,104ZM216,216a8,8,0,0,0,0,16h24a8,8,0,0,0,0-16Zm56,0a8,8,0,0,0,0,16h16a8,8,0,0,0,0-16ZM400,80h16a8,8,0,0,0,0-16H400a8,8,0,0,0,0,16ZM184,336H152a8,8,0,0,0,0,16h32a8,8,0,0,0,0-16Zm40,16a8,8,0,0,0,0-16h-8a8,8,0,0,0,0,16Zm88,0a8,8,0,0,0,0-16H256a8,8,0,0,0,0,16ZM192,376a8,8,0,0,0,8,8h24a8,8,0,0,0,0-16H200A8,8,0,0,0,192,376Zm48,0a8,8,0,0,0,8,8h40a8,8,0,0,0,0-16H248A8,8,0,0,0,240,376Zm200-52.687V344h16a8,8,0,0,1,8,8v20.687a35.048,35.048,0,0,1-8,22.389V408h16a8,8,0,0,1,8,8v32a8,8,0,0,1-5.029,7.428L464,459.816V480h24a8,8,0,0,1,0,16H24a8,8,0,0,1,0-16H48.022A39.978,39.978,0,0,1,80,416c.09,0,.179.006.269.007l.1,0A39.972,39.972,0,0,1,111.978,480h36.278l5.635-33.813A24,24,0,0,1,163.033,400H310.088l16.845-33.689a25.889,25.889,0,1,1,46.311,23.155l-25.893,51.785L353.81,480H400V459.816l-10.971-4.388A8,8,0,0,1,384,448V416a8,8,0,0,1,8-8h16V395.072a35.344,35.344,0,0,1-8-22.385V368a24,24,0,1,1,24-24V320H24a8,8,0,0,1,0-16H39.039A104.244,104.244,0,0,1,76,269.252,24,24,0,1,1,120,256c0,.074,0,.146-.006.22q3.323-.216,6.678-.22h16V236.974a176.591,176.591,0,0,1,21.641-84.635L51.479,115.461a8,8,0,0,1,.334-15.309L83.9,91.2a87.773,87.773,0,0,1,73.129,11.966L118.705,27.619A8,8,0,0,1,129.77,17.032l29.01,16.36a87.764,87.764,0,0,1,44.685,81.063A87.737,87.737,0,0,1,287.4,75.426l33.066,3.929a8,8,0,0,1,2.676,15.079l-75.555,38.337a87.944,87.944,0,0,1,66.1,33.53l20.6,26.171a8,8,0,0,1-8.771,12.552L211.44,167.75a23.775,23.775,0,0,1-7.851-.163,159.219,159.219,0,0,0-12.917,63.06v37.162A104.294,104.294,0,0,1,230.305,304h20.426a48,48,0,1,1,90.538,0h95.418l5.656-5.657A8,8,0,0,1,456,304h32a8,8,0,0,1,0,16H443.313ZM231.25,149.963a23.856,23.856,0,0,1-2.763,6.524l76.887,25.123-4.26-5.412A71.963,71.963,0,0,0,231.25,149.963Zm-13.592-27.927a24.057,24.057,0,0,1,6.805,4.525L292.33,92.125l-6.824-.811A71.769,71.769,0,0,0,217.658,122.036ZM200,144a8,8,0,1,0,8-8A8.009,8.009,0,0,0,200,144Zm-10.443,15.338a23.74,23.74,0,0,1-10.862.064q-2.34,4.236-4.412,8.6h11.9q1.635-4.291,3.5-8.519C189.64,159.433,189.6,159.386,189.557,159.338Zm-.755-29.724A8,8,0,1,0,184,144,23.872,23.872,0,0,1,188.8,129.614Zm-27.464-1.5A71.809,71.809,0,0,0,88.2,106.61l-6.635,1.851,78.516,25.662A23.818,23.818,0,0,1,161.338,128.113ZM179.654,112.4a23.526,23.526,0,0,1,7.878-.133,71.792,71.792,0,0,0-36.61-64.94l-5.991-3.379ZM163,200h14.344q1.421-8.081,3.582-16H167.69A160.541,160.541,0,0,0,163,200Zm-4.245,32h15.917v-1.353q0-7.371.6-14.647h-15.22A160.524,160.524,0,0,0,158.755,232Zm-.083,25.261a103.932,103.932,0,0,1,16,3.833V248h-16ZM88,256a7.992,7.992,0,0,0,3.118,6.32,103.992,103.992,0,0,1,12.437-3.689A8,8,0,1,0,88,256Zm122.548,48a88.363,88.363,0,0,0-67.876-32h-16A88.361,88.361,0,0,0,58.8,304ZM328,288a32,32,0,1,0-59.724,16h55.448A31.726,31.726,0,0,0,328,288ZM84.8,479.518a66.777,66.777,0,0,1-14.384-45.513A24,24,0,0,0,84.8,479.518ZM104,456a24.038,24.038,0,0,0-17.446-23.083,50.6,50.6,0,0,0,12.064,38.207A23.884,23.884,0,0,0,104,456Zm59.033-24H334.088l24.845-49.689A9.889,9.889,0,0,0,350.088,368a9.836,9.836,0,0,0-8.844,5.466l-19.056,38.112A8,8,0,0,1,315.033,416h-152a8,8,0,0,0,0,16Zm140.9,48-2.666-8H200.8l-2.667,8Zm33.656,0-5.333-32H169.81l-5.333,32h16.79l6.176-18.53a8,8,0,0,1,7.59-5.47h112a8,8,0,0,1,7.589,5.47L320.8,480ZM408,344a8,8,0,1,0-8,8A8,8,0,0,1,408,344Zm40,122.216-13.029,5.212a8,8,0,0,1-5.942,0L416,466.216V480h32ZM448,424H400v18.583l32,12.8,32-12.8V424Zm-32-64v12.687a19.305,19.305,0,0,0,5.657,13.656A8,8,0,0,1,424,392v16h16V392a8,8,0,0,1,2.343-5.657A19.187,19.187,0,0,0,448,372.687V360Zm80-184a31.92,31.92,0,0,1-1.823,10.666A8,8,0,0,1,486.634,192H377.366a8,8,0,0,1-7.543-5.334,32.027,32.027,0,0,1,14.492-38.559,24.07,24.07,0,0,1,18.8-19.607,40,40,0,0,1,76.669,19.673A32.2,32.2,0,0,1,496,176Zm-16,0a16.074,16.074,0,0,0-11.517-15.358,8,8,0,0,1-5.445-9.918,24,24,0,1,0-46.291-12.692,7.989,7.989,0,0,1-8.245,6l-.55-.035A8,8,0,0,0,400,152c0,.228.021.452.04.676a8,8,0,0,1-5.328,8.223A16.018,16.018,0,0,0,384,176Zm-458.644,36a40,40,0,0,1,67.266-43.139,32.011,32.011,0,0,1,37.555,41.8A8,8,0,0,1,118.634,216H28.281A8,8,0,0,1,21.356,212.005ZM32,192a24.086,24.086,0,0,0,1.367,8H112a16.019,16.019,0,0,0-16-16,15.81,15.81,0,0,0-7.277,1.753,8,8,0,0,1-10.916-3.773A24,24,0,0,0,32,192ZM344,80h24a8,8,0,0,0,0-16H344a8,8,0,0,0,0,16Z" style="fill:url(#linear-gradient)"/></g></svg>
