<?xml version="1.0" encoding="UTF-8"?>
<svg xmlns="http://www.w3.org/2000/svg" viewBox="0 0 64 64" width="512" height="512"><g id="Spoon-Fork-Tableware-Kitchen-Food"><path d="M51,45V61H49L47,45H45L44,61H42L41,45H39L37,61H35V45a8.006,8.006,0,0,1,5.81-7.69L39.21,6.99a3.8,3.8,0,1,1,7.58,0l-1.6,30.32A8.006,8.006,0,0,1,51,45Z" style="fill:#bddbff"/><path d="M23.19,37.47C26.54,38.89,29,43.51,29,49c0,6.63-3.58,12-8,12s-8-5.37-8-12c0-5.49,2.46-10.11,5.81-11.53L17.21,6.99a3.8,3.8,0,1,1,7.58,0Z" style="fill:#bddbff"/><path d="M24.22,36.855,25.789,7.047a4.8,4.8,0,1,0-9.578,0L17.78,36.855C14.3,38.752,12,43.517,12,49c0,7.168,4.038,13,9,13s9-5.832,9-13C30,43.517,27.7,38.752,24.22,36.855ZM21,60c-3.86,0-7-4.935-7-11,0-4.944,2.141-9.31,5.206-10.615a1,1,0,0,0,.606-.973l-1.6-30.471a2.8,2.8,0,1,1,5.584,0L22.187,37.412a1,1,0,0,0,.607.973C25.859,39.69,28,44.056,28,49,28,55.065,24.86,60,21,60Z" style="fill:#57a4ff"/><path d="M46.233,36.606,47.789,7.047a4.8,4.8,0,1,0-9.578,0l1.556,29.559A9.036,9.036,0,0,0,34,45V61a1,1,0,0,0,1,1h2a1,1,0,0,0,.992-.876L39.883,46h.178L41,61.062A1,1,0,0,0,42,62h2a1,1,0,0,0,1-.938L45.939,46h.178l1.891,15.124A1,1,0,0,0,49,62h2a1,1,0,0,0,1-1V45A9.036,9.036,0,0,0,46.233,36.606ZM50,60h-.117L47.992,44.876A1,1,0,0,0,47,44H45a1,1,0,0,0-1,.938L43.061,60h-.122L42,44.938A1,1,0,0,0,41,44H39a1,1,0,0,0-.992.876L36.117,60H36V45a7.024,7.024,0,0,1,5.08-6.726A1,1,0,0,0,41.8,37.26l-1.6-30.319a2.774,2.774,0,0,1,.764-2.07,2.863,2.863,0,0,1,4.056,0,2.774,2.774,0,0,1,.764,2.07L44.2,37.26a1,1,0,0,0,.724,1.014A7.024,7.024,0,0,1,50,45Z" style="fill:#57a4ff"/></g></svg>
