<?xml version="1.0"?>
<svg xmlns="http://www.w3.org/2000/svg" xmlns:xlink="http://www.w3.org/1999/xlink" viewBox="0 0 512 512" width="512" height="512"><defs><linearGradient id="linear-gradient" x1="81.462" y1="508.779" x2="512.778" y2="77.464" gradientUnits="userSpaceOnUse"><stop offset="0" stop-color="#35e0d1"/><stop offset="1" stop-color="#f07ff1"/></linearGradient></defs><g id="gradient"><path d="M312,264a8,8,0,0,1-16,0,104.137,104.137,0,0,0-44.578-85.359,8,8,0,1,1,9.156-13.125A120.166,120.166,0,0,1,312,264ZM226.289,148.977a119.358,119.358,0,0,0-17.156-3.766,8,8,0,0,0-2.266,15.844,102.348,102.348,0,0,1,14.844,3.25,8.1,8.1,0,0,0,2.289.336,8,8,0,0,0,2.289-15.664ZM496,160V440a8,8,0,0,1-8,8H24a8,8,0,0,1-8-8V360a8,8,0,0,1,8-8H51.055l-8-16H40a24,24,0,0,1,0-48V264c0-73.568,52.548-135.066,122.074-149.009a32,32,0,1,1,59.852,0C291.452,128.934,344,190.432,344,264v24a24,24,0,0,1,0,48h-3.055l-8,16H384V199.191A40,40,0,1,1,431.191,152H448V88a7.992,7.992,0,0,1,3.2-6.4l32-24A8,8,0,1,1,492.8,70.4L464,92v60h24A8,8,0,0,1,496,160Zm-96,39.191V208h48V168H431.191A40.117,40.117,0,0,1,400,199.191ZM414.526,168H400v14.526A23.97,23.97,0,0,0,414.526,168ZM384,182.525V160a8,8,0,0,1,8-8h22.526A23.94,23.94,0,1,0,384,182.525ZM176,104a16.008,16.008,0,0,0,2.593,8.679c4.426-.389,8.882-.679,13.407-.679s8.981.29,13.407.679A15.988,15.988,0,1,0,176,104ZM56,288H328V264c0-74.992-61.008-136-136-136S56,189.008,56,264Zm288,32a8,8,0,0,0,0-16H40a8,8,0,0,0,0,16ZM60.945,336l8,16h246.11l8-16ZM480,368H32v64H480Zm0-144H400V352h80Zm0-56H464v40h16ZM414.6,290.328l10.741-5.715-7.656-2.34a7.988,7.988,0,0,1-5.312-9.984l9.352-30.6a8,8,0,0,1,9.984-5.312l30.6,9.352a7.988,7.988,0,0,1,5.313,9.984l-9.352,30.6c-.054.179-.174.314-.24.486l10.67,20.054a8,8,0,0,1-3.3,10.82L437.148,332.7a7.911,7.911,0,0,1-3.75.938,7.992,7.992,0,0,1-7.07-4.243L411.3,301.148A8,8,0,0,1,414.6,290.328Zm15.414-21.016,15.3,4.672,4.672-15.3-15.3-4.671ZM429.18,300.7,436.7,314.82l14.125-7.515-7.515-14.125Z" style="fill:url(#linear-gradient)"/></g></svg>
